<svg width="4096" height="4096" viewBox="0 0 4096 4096" fill="none" xmlns="http://www.w3.org/2000/svg">
<g clip-path="url(#clip0_243_1049)">
<rect width="4096" height="4096" fill="#08091E"/>
<path d="M1240 -959C1240 -959 1527.13 -738.413 1743.5 -672C1980.75 -599.177 2147.34 -728.075 2378 -636.5C2617.7 -541.337 2581.15 -266.004 2821.5 -172.5C3046.36 -85.0233 3213.1 -226.566 3438.5 -140.5C3687.98 -45.2408 3881 311.167 4012 274.5C4143 237.833 4260.69 153.386 4426.5 171.5C4704.39 201.858 4790.67 490.5 4962 646.5C5133.33 802.5 5308.89 759.294 5518.5 745.5C5635.62 737.792 5816 1132 5816 1132" stroke="url(#paint0_linear_243_1049)" stroke-width="700" stroke-linecap="round"/>
<path d="M900 -549C900 -549 1187.13 -328.413 1403.5 -262C1640.75 -189.177 1807.34 -318.075 2038 -226.5C2277.7 -131.337 2241.15 143.996 2481.5 237.5C2706.36 324.977 2873.1 183.434 3098.5 269.5C3347.98 364.759 3541 721.167 3672 684.5C3803 647.833 3920.69 563.386 4086.5 581.5C4364.39 611.858 4450.67 900.5 4622 1056.5C4793.33 1212.5 4968.89 1169.29 5178.5 1155.5C5295.62 1147.79 5476 1542 5476 1542" stroke="url(#paint1_linear_243_1049)" stroke-width="700" stroke-linecap="round"/>
<path d="M851 -150C851 -150 1138.13 70.5875 1354.5 137C1591.75 209.823 1758.34 80.9254 1989 172.5C2228.7 267.663 2192.15 542.996 2432.5 636.5C2657.36 723.977 2824.1 582.434 3049.5 668.5C3298.98 763.759 3492 1120.17 3623 1083.5C3754 1046.83 3871.69 962.386 4037.5 980.5C4315.39 1010.86 4401.67 1299.5 4573 1455.5C4744.33 1611.5 4919.89 1568.29 5129.5 1554.5C5246.62 1546.79 5427 1941 5427 1941" stroke="url(#paint2_linear_243_1049)" stroke-width="700" stroke-linecap="round"/>
<path d="M255 194C255 194 542.134 414.587 758.5 481C995.75 553.823 1162.34 424.925 1393 516.5C1632.7 611.663 1596.15 886.996 1836.5 980.5C2061.36 1067.98 2228.1 926.434 2453.5 1012.5C2702.98 1107.76 2896 1464.17 3027 1427.5C3158 1390.83 3275.69 1306.39 3441.5 1324.5C3719.39 1354.86 3805.67 1643.5 3977 1799.5C4148.33 1955.5 4323.89 1912.29 4533.5 1898.5C4650.62 1890.79 4831 2285 4831 2285" stroke="url(#paint3_linear_243_1049)" stroke-width="700" stroke-linecap="round"/>
<path d="M0 681C0 681 287.134 901.587 503.5 968C740.75 1040.82 907.338 911.925 1138 1003.5C1377.7 1098.66 1341.15 1374 1581.5 1467.5C1806.36 1554.98 1973.1 1413.43 2198.5 1499.5C2447.98 1594.76 2641 1951.17 2772 1914.5C2903 1877.83 3020.69 1793.39 3186.5 1811.5C3464.39 1841.86 3550.67 2130.5 3722 2286.5C3893.33 2442.5 4068.89 2399.29 4278.5 2385.5C4395.62 2377.79 4576 2772 4576 2772" stroke="url(#paint4_linear_243_1049)" stroke-width="700" stroke-linecap="round"/>
<path d="M-240 1166C-240 1166 47.1337 1386.59 263.5 1453C500.75 1525.82 667.338 1396.93 898 1488.5C1137.7 1583.66 1101.15 1859 1341.5 1952.5C1566.36 2039.98 1733.1 1898.43 1958.5 1984.5C2207.98 2079.76 2401 2436.17 2532 2399.5C2663 2362.83 2780.69 2278.39 2946.5 2296.5C3224.39 2326.86 3310.67 2615.5 3482 2771.5C3653.33 2927.5 3828.89 2884.29 4038.5 2870.5C4155.62 2862.79 4336 3257 4336 3257" stroke="url(#paint5_linear_243_1049)" stroke-width="700" stroke-linecap="round"/>
<path d="M-480 1651C-480 1651 -192.866 1871.59 23.5 1938C260.75 2010.82 427.338 1881.93 658 1973.5C897.702 2068.66 861.146 2344 1101.5 2437.5C1326.36 2524.98 1493.1 2383.43 1718.5 2469.5C1967.98 2564.76 2161 2921.17 2292 2884.5C2423 2847.83 2540.69 2763.39 2706.5 2781.5C2984.39 2811.86 3070.67 3100.5 3242 3256.5C3413.33 3412.5 3588.89 3369.29 3798.5 3355.5C3915.62 3347.79 4096 3742 4096 3742" stroke="url(#paint6_linear_243_1049)" stroke-width="700" stroke-linecap="round"/>
<path d="M-720 2136C-720 2136 -432.866 2356.59 -216.5 2423C20.7504 2495.82 187.338 2366.93 418 2458.5C657.702 2553.66 621.146 2829 861.5 2922.5C1086.36 3009.98 1253.1 2868.43 1478.5 2954.5C1727.98 3049.76 1921 3406.17 2052 3369.5C2183 3332.83 2300.69 3248.39 2466.5 3266.5C2744.39 3296.86 2830.67 3585.5 3002 3741.5C3173.33 3897.5 3348.89 3854.29 3558.5 3840.5C3675.62 3832.79 3856 4227 3856 4227" stroke="url(#paint7_linear_243_1049)" stroke-width="700" stroke-linecap="round"/>
<path d="M-960 2621C-960 2621 -672.866 2841.59 -456.5 2908C-219.25 2980.82 -52.6622 2851.93 178 2943.5C417.702 3038.66 381.146 3314 621.5 3407.5C846.361 3494.98 1013.1 3353.43 1238.5 3439.5C1487.98 3534.76 1681 3891.17 1812 3854.5C1943 3817.83 2060.69 3733.39 2226.5 3751.5C2504.39 3781.86 2590.67 4070.5 2762 4226.5C2933.33 4382.5 3108.89 4339.29 3318.5 4325.5C3435.62 4317.79 3616 4712 3616 4712" stroke="url(#paint8_linear_243_1049)" stroke-width="700" stroke-linecap="round"/>
<path d="M-1239.01 3145.01C-1239.01 3145.01 -951.874 3365.6 -735.508 3432.01C-498.257 3504.83 -331.67 3375.93 -101.008 3467.51C138.694 3562.67 102.138 3838 342.492 3931.51C567.353 4018.98 734.087 3877.44 959.492 3963.51C1208.97 4058.77 1401.99 4415.17 1532.99 4378.51C1663.99 4341.84 1781.68 4257.39 1947.49 4275.51C2225.38 4305.87 2311.66 4594.51 2482.99 4750.51C2654.33 4906.51 2829.88 4863.3 3039.49 4849.51C3156.62 4841.8 3336.99 5236.01 3336.99 5236.01" stroke="url(#paint9_linear_243_1049)" stroke-width="700" stroke-linecap="round"/>
<g clip-path="url(#clip1_243_1049)">
<path d="M1711.76 1949.52L1635.91 2047.98L1583.93 1980.5C1576.39 1970.71 1561.61 1970.71 1554.07 1980.5L1502.09 2047.98L1426.24 1949.52C1419.24 1940.43 1421.96 1927.25 1431.99 1921.66L1559.81 1850.39C1565.52 1847.2 1572.48 1847.2 1578.19 1850.39L1706.01 1921.66C1716.04 1927.25 1718.76 1940.43 1711.76 1949.52Z" fill="white"/>
<path d="M1502.09 2047.98L1554.07 2115.45C1561.61 2125.24 1576.39 2125.24 1583.93 2115.45L1635.91 2047.98L1711.76 2146.43C1718.76 2155.53 1716.05 2168.7 1706.02 2174.3L1578.19 2245.61C1572.48 2248.8 1565.52 2248.8 1559.81 2245.61L1431.98 2174.3C1421.95 2168.7 1419.24 2155.53 1426.24 2146.43L1502.09 2047.98Z" fill="white"/>
</g>
<path d="M1883.21 1963.6C1897.43 1955.47 1913.25 1951.41 1930.69 1951.41C1948.12 1951.41 1963.95 1955.47 1978.17 1963.6C1992.39 1971.72 2003.52 1982.94 2011.56 1997.24C2019.68 2011.54 2023.75 2027.46 2023.75 2044.97C2023.75 2062.49 2019.68 2078.41 2011.56 2092.71C2003.52 2107.01 1992.39 2118.23 1978.17 2126.35C1963.95 2134.48 1948.12 2138.54 1930.69 2138.54C1913.25 2138.54 1897.43 2134.48 1883.21 2126.35C1869.07 2118.23 1857.99 2107.01 1849.95 2092.71C1841.91 2078.41 1837.89 2062.49 1837.89 2044.97C1837.89 2027.46 1841.91 2011.54 1849.95 1997.24C1857.99 1982.94 1869.07 1971.72 1883.21 1963.6ZM1968.78 2004.98C1958.62 1994.24 1945.92 1988.86 1930.69 1988.86C1915.46 1988.86 1902.76 1994.24 1892.6 2004.98C1882.45 2015.65 1877.37 2028.98 1877.37 2044.97C1877.37 2060.97 1882.45 2074.34 1892.6 2085.09C1902.76 2095.84 1915.46 2101.21 1930.69 2101.21C1945.92 2101.21 1958.62 2095.84 1968.78 2085.09C1978.93 2074.34 1984.01 2060.97 1984.01 2044.97C1984.01 2028.98 1978.93 2015.65 1968.78 2004.98ZM2135.85 1953.95H2172.54V2136H2135.85V2120.89C2132.71 2126.14 2127.64 2130.41 2120.61 2133.71C2113.67 2136.93 2106.18 2138.54 2098.14 2138.54C2087.22 2138.54 2077.19 2135.58 2068.05 2129.65C2058.91 2123.73 2051.72 2115.69 2046.47 2105.53C2041.22 2095.29 2038.6 2084.12 2038.6 2072.02C2038.6 2053.57 2044.35 2037.91 2055.87 2025.04C2067.46 2012.18 2081.55 2005.75 2098.14 2005.75C2106.1 2005.75 2113.59 2007.4 2120.61 2010.7C2127.64 2014 2132.71 2018.23 2135.85 2023.39V1953.95ZM2106.27 2103.75C2112.44 2103.75 2118.2 2102.27 2123.53 2099.31C2128.95 2096.35 2133.05 2092.54 2135.85 2087.88V2056.65C2133.05 2051.83 2128.95 2047.89 2123.53 2044.85C2118.2 2041.8 2112.44 2040.28 2106.27 2040.28C2097.29 2040.28 2089.76 2043.32 2083.67 2049.42C2077.57 2055.43 2074.53 2062.96 2074.53 2072.02C2074.53 2081.07 2077.57 2088.65 2083.67 2094.74C2089.76 2100.75 2097.29 2103.75 2106.27 2103.75ZM2283.49 2008.29H2322.97L2252.01 2178.4H2212.78L2236.39 2125.59L2187.26 2008.29H2226.87L2255.18 2082.93L2283.49 2008.29ZM2378.96 2138.54C2355.77 2138.54 2336.69 2133.21 2321.71 2122.54L2332.62 2097.03C2344.64 2106 2359.03 2110.48 2375.79 2110.48C2381.46 2110.48 2385.99 2109.51 2389.37 2107.56C2392.84 2105.62 2394.58 2103.12 2394.58 2100.07C2394.58 2097.45 2393.26 2095.29 2390.64 2093.6C2388.1 2091.82 2384.8 2090.42 2380.74 2089.41C2376.68 2088.39 2372.19 2087.38 2367.28 2086.36C2362.37 2085.26 2357.46 2083.86 2352.55 2082.17C2347.65 2080.39 2343.16 2078.24 2339.1 2075.7C2335.04 2073.07 2331.69 2069.43 2329.07 2064.78C2326.53 2060.04 2325.22 2054.5 2325.13 2048.15C2324.96 2036.13 2329.7 2026.06 2339.35 2017.93C2349 2009.81 2361.31 2005.75 2376.29 2005.75C2396.52 2005.75 2412.73 2010.61 2424.92 2020.35L2414.51 2046.88C2409.43 2043.07 2403.21 2039.9 2395.85 2037.36C2388.57 2034.82 2381.54 2033.55 2374.77 2033.55C2370.12 2033.55 2366.35 2034.52 2363.47 2036.47C2360.6 2038.42 2359.16 2040.83 2359.16 2043.71C2359.16 2045.91 2360.17 2047.85 2362.2 2049.54C2364.23 2051.15 2366.86 2052.46 2370.07 2053.48C2373.38 2054.5 2377.1 2055.64 2381.25 2056.91C2385.48 2058.09 2389.75 2059.28 2394.07 2060.46C2398.38 2061.65 2402.62 2063.3 2406.76 2065.41C2411 2067.53 2414.76 2069.94 2418.06 2072.65C2421.36 2075.27 2424.03 2078.74 2426.06 2083.06C2428.18 2087.38 2429.28 2092.29 2429.36 2097.79C2429.36 2109.64 2424.62 2119.41 2415.14 2127.11C2405.75 2134.73 2393.69 2138.54 2378.96 2138.54ZM2570.03 2066.56C2570.03 2071.72 2569.69 2076.5 2569.01 2080.9H2477.22C2478.92 2089.54 2482.6 2096.14 2488.27 2100.71C2493.94 2105.19 2501.17 2107.44 2509.98 2107.44C2515.73 2107.44 2521.23 2106.21 2526.48 2103.75C2531.81 2101.3 2535.58 2098.17 2537.78 2094.36L2566.34 2111.88C2561.69 2120.34 2554.33 2126.9 2544.25 2131.56C2534.18 2136.21 2522.5 2138.54 2509.21 2138.54C2490.43 2138.54 2474.51 2132.11 2461.48 2119.24C2448.53 2106.29 2442.06 2090.38 2442.06 2071.51C2442.06 2052.97 2448.45 2037.4 2461.23 2024.79C2474.09 2012.09 2489.83 2005.75 2508.45 2005.75C2525.72 2005.75 2540.28 2011.63 2552.12 2023.39C2564.06 2035.16 2570.03 2049.54 2570.03 2066.56ZM2477.73 2057.54H2533.34C2532.57 2051.2 2529.61 2045.91 2524.45 2041.67C2519.29 2037.44 2513.32 2035.33 2506.55 2035.33C2498.93 2035.33 2492.67 2037.27 2487.76 2041.17C2482.85 2045.06 2479.51 2050.52 2477.73 2057.54ZM2662.07 2005.75C2678.15 2005.75 2690.8 2010.95 2700.03 2021.36C2709.34 2031.69 2713.99 2045.82 2713.99 2063.76V2136H2677.3V2069.98C2677.3 2061.27 2675.1 2054.45 2670.7 2049.54C2666.3 2044.64 2660.29 2042.18 2652.67 2042.18C2647.59 2042.18 2642.73 2043.49 2638.07 2046.12C2633.42 2048.74 2629.78 2052.25 2627.15 2056.65V2136H2590.46V2008.29H2627.15V2023.39C2630.62 2017.98 2635.49 2013.7 2641.75 2010.57C2648.1 2007.35 2654.87 2005.75 2662.07 2005.75Z" fill="white"/>
</g>
<defs>
<linearGradient id="paint0_linear_243_1049" x1="3528" y1="-1392" x2="3528" y2="1132" gradientUnits="userSpaceOnUse">
<stop stop-color="#0A0C28"/>
<stop offset="1" stop-color="#2D2E58"/>
</linearGradient>
<linearGradient id="paint1_linear_243_1049" x1="3188" y1="-982" x2="3188" y2="1542" gradientUnits="userSpaceOnUse">
<stop stop-color="#0A0C28"/>
<stop offset="1" stop-color="#2D2E58"/>
</linearGradient>
<linearGradient id="paint2_linear_243_1049" x1="3139" y1="-583" x2="3139" y2="1941" gradientUnits="userSpaceOnUse">
<stop stop-color="#0A0C28"/>
<stop offset="1" stop-color="#2D2E58"/>
</linearGradient>
<linearGradient id="paint3_linear_243_1049" x1="2543" y1="-239" x2="2543" y2="2285" gradientUnits="userSpaceOnUse">
<stop stop-color="#0A0C28"/>
<stop offset="1" stop-color="#2D2E58"/>
</linearGradient>
<linearGradient id="paint4_linear_243_1049" x1="2288" y1="248" x2="2288" y2="2772" gradientUnits="userSpaceOnUse">
<stop stop-color="#0A0C28"/>
<stop offset="1" stop-color="#2D2E58"/>
</linearGradient>
<linearGradient id="paint5_linear_243_1049" x1="2048" y1="733" x2="2048" y2="3257" gradientUnits="userSpaceOnUse">
<stop stop-color="#0A0C28"/>
<stop offset="1" stop-color="#2D2E58"/>
</linearGradient>
<linearGradient id="paint6_linear_243_1049" x1="1808" y1="1218" x2="1808" y2="3742" gradientUnits="userSpaceOnUse">
<stop stop-color="#0A0C28"/>
<stop offset="1" stop-color="#2D2E58"/>
</linearGradient>
<linearGradient id="paint7_linear_243_1049" x1="1568" y1="1703" x2="1568" y2="4227" gradientUnits="userSpaceOnUse">
<stop stop-color="#0A0C28"/>
<stop offset="1" stop-color="#2D2E58"/>
</linearGradient>
<linearGradient id="paint8_linear_243_1049" x1="1328" y1="2188" x2="1328" y2="4712" gradientUnits="userSpaceOnUse">
<stop stop-color="#0A0C28"/>
<stop offset="1" stop-color="#2D2E58"/>
</linearGradient>
<linearGradient id="paint9_linear_243_1049" x1="1048.99" y1="2712.01" x2="1048.99" y2="5236.01" gradientUnits="userSpaceOnUse">
<stop stop-color="#0A0C28"/>
<stop offset="1" stop-color="#2D2E58"/>
</linearGradient>
<clipPath id="clip0_243_1049">
<rect width="4096" height="4096" fill="white"/>
</clipPath>
<clipPath id="clip1_243_1049">
<rect width="400" height="400" fill="white" transform="translate(1369 1848)"/>
</clipPath>
</defs>
</svg>
