<svg width="4096" height="4096" viewBox="0 0 4096 4096" fill="none" xmlns="http://www.w3.org/2000/svg">
<rect width="4096" height="4096" fill="#E3E1FF"/>
<rect width="3893" height="4096" fill="url(#paint0_radial_607_279)"/>
<path fill-rule="evenodd" clip-rule="evenodd" d="M1733.32 1894.95C1734.15 1899.59 1737.5 1904.19 1744.2 1913.37L1842.16 2047.62L1744.2 2181.86C1737.5 2191.05 1734.15 2195.64 1733.32 2200.29C1732.38 2205.54 1733.53 2210.96 1736.53 2215.37C1739.19 2219.28 1744.12 2222.11 1753.99 2227.76L1931.34 2329.38L1931.34 2329.38C1936.67 2332.44 1939.34 2333.97 1942.15 2334.65C1945.34 2335.43 1948.66 2335.43 1951.85 2334.65C1954.66 2333.97 1957.33 2332.44 1962.66 2329.38L2140.01 2227.76C2149.88 2222.11 2154.81 2219.28 2157.47 2215.37C2160.47 2210.96 2161.62 2205.54 2160.68 2200.29C2159.85 2195.64 2156.5 2191.05 2149.8 2181.86L2051.84 2047.62L2149.8 1913.37C2156.5 1904.19 2159.85 1899.59 2160.68 1894.95C2161.62 1889.69 2160.47 1884.28 2157.47 1879.86C2154.81 1875.95 2149.88 1873.13 2140.01 1867.47L1962.66 1765.85C1957.33 1762.8 1954.66 1761.27 1951.85 1760.58C1948.66 1759.81 1945.34 1759.81 1942.15 1760.58C1939.34 1761.27 1936.67 1762.8 1931.34 1765.85L1753.99 1867.47C1744.12 1873.13 1739.19 1875.95 1736.53 1879.86C1733.53 1884.28 1732.38 1889.69 1733.32 1894.95ZM2051.84 2047.62L1972.44 1938.82C1964.41 1927.81 1960.39 1922.31 1955.57 1920.08C1950.13 1917.57 1943.87 1917.57 1938.43 1920.08C1933.61 1922.31 1929.59 1927.81 1921.56 1938.82L1842.16 2047.62L1921.56 2156.41C1929.59 2167.42 1933.61 2172.93 1938.43 2175.15C1943.87 2177.66 1950.13 2177.66 1955.57 2175.15C1960.39 2172.93 1964.41 2167.42 1972.44 2156.41L2051.84 2047.62Z" fill="#001568"/>
<defs>
<radialGradient id="paint0_radial_607_279" cx="0" cy="0" r="1" gradientUnits="userSpaceOnUse" gradientTransform="translate(1946.5 4715.02) rotate(-88.6527) scale(3797.93 3514.24)">
<stop stop-color="#0038FF"/>
<stop offset="1" stop-color="white" stop-opacity="0"/>
</radialGradient>
</defs>
</svg>
