<svg width="4096" height="4096" viewBox="0 0 4096 4096" fill="none" xmlns="http://www.w3.org/2000/svg">
<g clip-path="url(#clip0_610_317)">
<rect width="4096" height="4096" fill="#0B0085"/>
<path fill-rule="evenodd" clip-rule="evenodd" d="M1833.13 1017.86C1833.47 1019.75 1834.83 1021.62 1837.55 1025.35L1877.38 1079.93L1837.55 1134.5C1834.83 1138.24 1833.47 1140.11 1833.13 1142C1832.75 1144.13 1833.22 1146.33 1834.44 1148.13C1835.52 1149.72 1837.52 1150.87 1841.53 1153.16L1913.63 1194.48L1913.63 1194.48C1915.8 1195.72 1916.89 1196.34 1918.03 1196.62C1919.32 1196.94 1920.68 1196.94 1921.97 1196.62C1923.11 1196.34 1924.2 1195.72 1926.37 1194.48L1998.47 1153.16C2002.48 1150.87 2004.48 1149.72 2005.56 1148.13C2006.78 1146.33 2007.25 1144.13 2006.87 1142C2006.53 1140.11 2005.17 1138.24 2002.45 1134.5L1962.62 1079.93L2002.45 1025.35C2005.17 1021.62 2006.53 1019.75 2006.87 1017.86C2007.25 1015.72 2006.78 1013.52 2005.56 1011.73C2004.48 1010.14 2002.48 1008.99 1998.47 1006.69L1926.37 965.38C1924.2 964.137 1923.11 963.516 1921.97 963.237C1920.68 962.921 1919.32 962.921 1918.03 963.237C1916.89 963.516 1915.8 964.137 1913.63 965.38L1841.53 1006.69C1837.52 1008.99 1835.52 1010.14 1834.44 1011.73C1833.22 1013.52 1832.75 1015.72 1833.13 1017.86ZM1962.62 1079.93L1930.34 1035.7C1927.08 1031.22 1925.45 1028.98 1923.49 1028.08C1921.27 1027.06 1918.73 1027.06 1916.51 1028.08C1914.55 1028.98 1912.92 1031.22 1909.66 1035.7L1877.38 1079.93L1909.66 1124.16C1912.92 1128.63 1914.55 1130.87 1916.51 1131.78C1918.73 1132.8 1921.27 1132.8 1923.49 1131.78C1925.45 1130.87 1927.08 1128.63 1930.34 1124.16L1962.62 1079.93Z" fill="#001568"/>
<rect width="4096" height="4096" rx="47" fill="url(#paint0_radial_610_317)"/>
<path fill-rule="evenodd" clip-rule="evenodd" d="M1834.32 1894.95C1835.15 1899.59 1838.5 1904.19 1845.2 1913.37L1943.16 2047.62L1845.2 2181.86C1838.5 2191.05 1835.15 2195.64 1834.32 2200.29C1833.38 2205.54 1834.53 2210.96 1837.53 2215.37C1840.19 2219.28 1845.12 2222.11 1854.99 2227.76L2032.34 2329.38L2032.34 2329.38C2037.67 2332.44 2040.34 2333.97 2043.15 2334.65C2046.34 2335.43 2049.66 2335.43 2052.85 2334.65C2055.66 2333.97 2058.33 2332.44 2063.66 2329.38L2241.01 2227.76C2250.88 2222.11 2255.81 2219.28 2258.47 2215.37C2261.47 2210.96 2262.62 2205.54 2261.68 2200.29C2260.85 2195.64 2257.5 2191.05 2250.8 2181.86L2152.84 2047.62L2250.8 1913.37C2257.5 1904.19 2260.85 1899.59 2261.68 1894.95C2262.62 1889.69 2261.47 1884.28 2258.47 1879.86C2255.81 1875.95 2250.88 1873.13 2241.01 1867.47L2063.66 1765.85C2058.33 1762.8 2055.66 1761.27 2052.85 1760.58C2049.66 1759.81 2046.34 1759.81 2043.15 1760.58C2040.34 1761.27 2037.67 1762.8 2032.34 1765.85L1854.99 1867.47C1845.12 1873.13 1840.19 1875.95 1837.53 1879.86C1834.53 1884.28 1833.38 1889.69 1834.32 1894.95ZM2152.84 2047.62L2073.44 1938.82C2065.41 1927.81 2061.39 1922.31 2056.57 1920.08C2051.13 1917.57 2044.87 1917.57 2039.43 1920.08C2034.61 1922.31 2030.59 1927.81 2022.56 1938.82L1943.16 2047.62L2022.56 2156.41C2030.59 2167.42 2034.61 2172.93 2039.43 2175.15C2044.87 2177.66 2051.13 2177.66 2056.57 2175.15C2061.39 2172.93 2065.41 2167.42 2073.44 2156.41L2152.84 2047.62Z" fill="#95ABFF"/>
</g>
<defs>
<radialGradient id="paint0_radial_610_317" cx="0" cy="0" r="1" gradientUnits="userSpaceOnUse" gradientTransform="translate(2048 4715.02) rotate(-88.5824) scale(3798.04 3697.38)">
<stop stop-color="#0038FF"/>
<stop offset="1" stop-color="white" stop-opacity="0"/>
</radialGradient>
<clipPath id="clip0_610_317">
<rect width="4096" height="4096" fill="white"/>
</clipPath>
</defs>
</svg>
