<svg width="4096" height="4096" viewBox="0 0 4096 4096" fill="none" xmlns="http://www.w3.org/2000/svg">
<g clip-path="url(#clip0_10_10)">
<rect width="4096" height="4096" fill="url(#paint0_linear_10_10)"/>
<path d="M4265.47 -179.994C4265.47 -179.994 4893.27 1487.68 4265.47 2142.01C4099.61 2314.87 4003.41 2460.95 3766.97 2499.51C3497.48 2543.45 3218.36 2499.72 3114.97 2247.01C3061.07 2115.26 3160.23 2017.46 3114.97 1882.51C3008.77 1565.87 2557.3 1789.24 2328.97 1545.51C2151.4 1355.97 2039.86 1202.08 2048.47 942.506C2055.5 730.224 2243.91 655.257 2265.97 444.006C2292.18 192.956 2087.69 72.2322 2097.47 -179.994C2130.27 -1026.01 4265.47 -179.994 4265.47 -179.994Z" fill="url(#paint1_linear_10_10)"/>
<path d="M-133.977 4371.48C-133.977 4371.48 -761.779 2703.81 -133.977 2049.48C31.8801 1876.62 128.083 1730.54 364.523 1691.98C634.013 1648.04 913.133 1691.77 1016.52 1944.48C1070.42 2076.23 971.259 2174.03 1016.52 2308.98C1122.72 2625.62 1574.19 2402.25 1802.52 2645.98C1980.09 2835.52 2091.63 2989.41 2083.02 3248.98C2075.99 3461.27 1887.58 3536.23 1865.52 3747.48C1839.31 3998.53 2043.8 4119.26 2034.02 4371.48C2001.22 5217.5 -133.977 4371.48 -133.977 4371.48Z" fill="url(#paint2_linear_10_10)"/>
<path d="M1691.42 1949.52L1615.58 2047.98L1563.6 1980.5C1556.06 1970.71 1541.27 1970.71 1533.74 1980.5L1481.75 2047.98L1405.91 1949.52C1398.9 1940.43 1401.62 1927.25 1411.65 1921.66L1539.48 1850.39C1545.19 1847.2 1552.14 1847.2 1557.85 1850.39L1685.68 1921.66C1695.71 1927.25 1698.43 1940.43 1691.42 1949.52Z" fill="white"/>
<path d="M1481.75 2047.98L1533.74 2115.45C1541.27 2125.24 1556.06 2125.24 1563.6 2115.45L1615.58 2047.98L1691.43 2146.43C1698.43 2155.53 1695.72 2168.7 1685.69 2174.3L1557.86 2245.61C1552.15 2248.8 1545.19 2248.8 1539.48 2245.61L1411.65 2174.3C1401.62 2168.7 1398.9 2155.53 1405.91 2146.43L1481.75 2047.98Z" fill="white"/>
<path d="M1862.88 1963.6C1877.09 1955.47 1892.92 1951.41 1910.36 1951.41C1927.79 1951.41 1943.62 1955.47 1957.84 1963.6C1972.06 1971.72 1983.18 1982.94 1991.23 1997.24C1999.35 2011.54 2003.41 2027.46 2003.41 2044.97C2003.41 2062.49 1999.35 2078.41 1991.23 2092.71C1983.18 2107.01 1972.06 2118.23 1957.84 2126.35C1943.62 2134.48 1927.79 2138.54 1910.36 2138.54C1892.92 2138.54 1877.09 2134.48 1862.88 2126.35C1848.74 2118.23 1837.65 2107.01 1829.61 2092.71C1821.57 2078.41 1817.55 2062.49 1817.55 2044.97C1817.55 2027.46 1821.57 2011.54 1829.61 1997.24C1837.65 1982.94 1848.74 1971.72 1862.88 1963.6ZM1948.44 2004.98C1938.29 1994.24 1925.59 1988.86 1910.36 1988.86C1895.12 1988.86 1882.43 1994.24 1872.27 2004.98C1862.11 2015.65 1857.04 2028.98 1857.04 2044.97C1857.04 2060.97 1862.11 2074.34 1872.27 2085.09C1882.43 2095.84 1895.12 2101.21 1910.36 2101.21C1925.59 2101.21 1938.29 2095.84 1948.44 2085.09C1958.6 2074.34 1963.68 2060.97 1963.68 2044.97C1963.68 2028.98 1958.6 2015.65 1948.44 2004.98Z" fill="white"/>
<path d="M2115.51 1953.95H2152.2V2136H2115.51V2120.89C2112.38 2126.14 2107.3 2130.41 2100.28 2133.71C2093.34 2136.93 2085.85 2138.54 2077.81 2138.54C2066.89 2138.54 2056.86 2135.58 2047.72 2129.65C2038.58 2123.73 2031.38 2115.69 2026.14 2105.53C2020.89 2095.29 2018.27 2084.12 2018.27 2072.02C2018.27 2053.57 2024.02 2037.91 2035.53 2025.04C2047.13 2012.18 2061.22 2005.75 2077.81 2005.75C2085.76 2005.75 2093.25 2007.4 2100.28 2010.7C2107.3 2014 2112.38 2018.23 2115.51 2023.39V1953.95ZM2085.93 2103.75C2092.11 2103.75 2097.87 2102.27 2103.2 2099.31C2108.61 2096.35 2112.72 2092.54 2115.51 2087.88V2056.65C2112.72 2051.83 2108.61 2047.89 2103.2 2044.85C2097.87 2041.8 2092.11 2040.28 2085.93 2040.28C2076.96 2040.28 2069.43 2043.32 2063.33 2049.42C2057.24 2055.43 2054.19 2062.96 2054.19 2072.02C2054.19 2081.07 2057.24 2088.65 2063.33 2094.74C2069.43 2100.75 2076.96 2103.75 2085.93 2103.75Z" fill="white"/>
<path d="M2263.16 2008.29H2302.64L2231.67 2178.4H2192.45L2216.06 2125.59L2166.93 2008.29H2206.54L2234.85 2082.93L2263.16 2008.29Z" fill="white"/>
<path d="M2358.63 2138.54C2335.44 2138.54 2316.35 2133.21 2301.37 2122.54L2312.29 2097.03C2324.31 2106 2338.7 2110.48 2355.45 2110.48C2361.12 2110.48 2365.65 2109.51 2369.04 2107.56C2372.51 2105.62 2374.24 2103.12 2374.24 2100.07C2374.24 2097.45 2372.93 2095.29 2370.31 2093.6C2367.77 2091.82 2364.47 2090.42 2360.4 2089.41C2356.34 2088.39 2351.86 2087.38 2346.95 2086.36C2342.04 2085.26 2337.13 2083.86 2332.22 2082.17C2327.31 2080.39 2322.83 2078.24 2318.76 2075.7C2314.7 2073.07 2311.36 2069.43 2308.74 2064.78C2306.2 2060.04 2304.88 2054.5 2304.8 2048.15C2304.63 2036.13 2309.37 2026.06 2319.02 2017.93C2328.67 2009.81 2340.98 2005.75 2355.96 2005.75C2376.19 2005.75 2392.4 2010.61 2404.58 2020.35L2394.17 2046.88C2389.1 2043.07 2382.88 2039.9 2375.51 2037.36C2368.23 2034.82 2361.21 2033.55 2354.44 2033.55C2349.78 2033.55 2346.02 2034.52 2343.14 2036.47C2340.26 2038.42 2338.82 2040.83 2338.82 2043.71C2338.82 2045.91 2339.84 2047.85 2341.87 2049.54C2343.9 2051.15 2346.52 2052.46 2349.74 2053.48C2353.04 2054.5 2356.77 2055.64 2360.91 2056.91C2365.14 2058.09 2369.42 2059.28 2373.74 2060.46C2378.05 2061.65 2382.28 2063.3 2386.43 2065.41C2390.66 2067.53 2394.43 2069.94 2397.73 2072.65C2401.03 2075.27 2403.7 2078.74 2405.73 2083.06C2407.84 2087.38 2408.94 2092.29 2409.03 2097.79C2409.03 2109.64 2404.29 2119.41 2394.81 2127.11C2385.41 2134.73 2373.35 2138.54 2358.63 2138.54Z" fill="white"/>
<path d="M2549.69 2066.56C2549.69 2071.72 2549.35 2076.5 2548.68 2080.9H2456.89C2458.58 2089.54 2462.26 2096.14 2467.93 2100.71C2473.6 2105.19 2480.84 2107.44 2489.64 2107.44C2495.4 2107.44 2500.9 2106.21 2506.15 2103.75C2511.48 2101.3 2515.25 2098.17 2517.45 2094.36L2546.01 2111.88C2541.36 2120.34 2533.99 2126.9 2523.92 2131.56C2513.85 2136.21 2502.17 2138.54 2488.88 2138.54C2470.09 2138.54 2454.18 2132.11 2441.15 2119.24C2428.2 2106.29 2421.72 2090.38 2421.72 2071.51C2421.72 2052.97 2428.11 2037.4 2440.89 2024.79C2453.76 2012.09 2469.5 2005.75 2488.12 2005.75C2505.39 2005.75 2519.94 2011.63 2531.79 2023.39C2543.73 2035.16 2549.69 2049.54 2549.69 2066.56ZM2457.4 2057.54H2513C2512.24 2051.2 2509.28 2045.91 2504.12 2041.67C2498.95 2037.44 2492.99 2035.33 2486.22 2035.33C2478.6 2035.33 2472.34 2037.27 2467.43 2041.17C2462.52 2045.06 2459.17 2050.52 2457.4 2057.54Z" fill="white"/>
<path d="M2641.73 2005.75C2657.81 2005.75 2670.47 2010.95 2679.69 2021.36C2689 2031.69 2693.66 2045.82 2693.66 2063.76V2136H2656.97V2069.98C2656.97 2061.27 2654.77 2054.45 2650.37 2049.54C2645.96 2044.64 2639.96 2042.18 2632.34 2042.18C2627.26 2042.18 2622.39 2043.49 2617.74 2046.12C2613.08 2048.74 2609.44 2052.25 2606.82 2056.65V2136H2570.13V2008.29H2606.82V2023.39C2610.29 2017.98 2615.16 2013.7 2621.42 2010.57C2627.77 2007.35 2634.54 2005.75 2641.73 2005.75Z" fill="white"/>
</g>
<defs>
<linearGradient id="paint0_linear_10_10" x1="2048" y1="0" x2="2048" y2="4096" gradientUnits="userSpaceOnUse">
<stop stop-color="#1DEDA2"/>
<stop offset="1" stop-color="#1ED78D"/>
</linearGradient>
<linearGradient id="paint1_linear_10_10" x1="3296.25" y1="2514.49" x2="3296.25" y2="-556.003" gradientUnits="userSpaceOnUse">
<stop stop-color="#49FFB6"/>
<stop offset="1" stop-color="#7CEEC6"/>
</linearGradient>
<linearGradient id="paint2_linear_10_10" x1="835.244" y1="1677" x2="835.244" y2="4747.49" gradientUnits="userSpaceOnUse">
<stop stop-color="#49FFB6"/>
<stop offset="1" stop-color="#7CEEC6"/>
</linearGradient>
<clipPath id="clip0_10_10">
<rect width="4096" height="4096" fill="white"/>
</clipPath>
</defs>
</svg>
