<svg width="4096" height="4096" viewBox="0 0 4096 4096" fill="none" xmlns="http://www.w3.org/2000/svg">
<rect width="4096" height="4096" fill="#F7F6E1"/>
<mask id="mask0_10_226" style="mask-type:alpha" maskUnits="userSpaceOnUse" x="1316" y="1316" width="1463" height="1463">
<circle cx="2047.5" cy="2047.5" r="731.5" fill="#E9E7CD"/>
</mask>
<g mask="url(#mask0_10_226)">
<circle cx="2047.5" cy="2047.5" r="731.5" fill="#E7E6C6"/>
<path d="M1451.5 2043.5C1420.33 1968.33 1327.9 1948.01 1301 1859C1257.58 1715.33 1332.03 1605.27 1439.5 1500.5C1530.85 1411.44 1618 1329.5 1739 1370C1860 1410.5 1774.5 1465 1869.5 1520.5C1964.5 1576 1992.66 1605.75 2002.5 1689C2010.76 1758.85 1943 1859 1943 1859C1937 1859 1865.13 1925.39 1836 1982C1798.34 2055.18 1848.99 2122.42 1802 2190C1745.51 2271.24 1676 2309 1570.5 2293C1465 2277 1482.67 2118.67 1451.5 2043.5Z" fill="#FF0066"/>
<path d="M1802 2630C1720.45 2645.38 1647.1 2622.6 1598 2689.5C1517.51 2799.18 1763.18 2834.94 1893.5 2874C2127.17 2944.03 2708.7 2883.96 2505.5 2749C2472.98 2727.4 2452.14 2719.42 2416.5 2703.5C2345.97 2671.99 2303.54 2660.33 2228.5 2642C2163.6 2626.15 2126.6 2617.67 2060 2612.5C1959.32 2604.69 1901.24 2611.29 1802 2630Z" fill="#FF0066"/>
<path d="M1802 2293C1746.5 2325 1589.65 2309.01 1618 2384.5C1639.01 2440.45 1731.14 2362.86 1757.5 2416.5C1775.24 2452.6 1789.56 2424.25 1802 2462.5C1814.78 2501.79 1817.16 2537.91 1855 2554.5C1900.08 2574.26 1889.83 2579.43 1925 2545C1966.74 2504.13 1963.74 2451.11 1943 2396.5C1918.75 2332.64 1861.17 2258.88 1802 2293Z" fill="#FF0066"/>
<path d="M2274 1520.5C2274 1520.5 2314.33 1444.67 2331.5 1415.5C2348.67 1386.33 2389.26 1380.47 2430.5 1370C2513.67 1348.89 2586.95 1337.71 2648.5 1397.5C2697.86 1445.44 2706.86 1497.53 2700 1566C2694.81 1617.82 2651.22 1637 2648.5 1689C2644.66 1762.44 2698.21 1792.45 2729.5 1859C2763.29 1930.87 2794.35 1966.82 2815 2043.5C2842.19 2144.44 2869.28 2216.3 2825 2311C2794.81 2375.57 2754.05 2397.53 2700 2444C2655.87 2481.94 2635.26 2516.1 2579 2531C2538.61 2541.7 2495.75 2565.38 2472 2531C2452.51 2502.78 2485.1 2478.28 2484 2444C2482.25 2389.62 2458.36 2363.05 2442.5 2311C2426.53 2258.58 2447.48 2207.81 2402.5 2176.5C2361.31 2147.83 2321.33 2193.19 2274 2176.5C2224.7 2159.11 2163.67 2142.76 2171 2091C2175.26 2060.95 2202.16 2055.07 2218.5 2029.5C2247.93 1983.44 2240.08 1943.86 2274 1901C2315.31 1848.81 2406.54 1873.31 2416.5 1807.5C2422.91 1765.18 2406.31 1737.46 2379 1704.5C2332.37 1648.22 2218.21 1725.38 2198.5 1655C2182.26 1597 2269.2 1534.5 2274 1520.5Z" fill="#FF0066"/>
<path d="M2083.5 1209C1946.11 1206.97 1669.62 1161.9 1739 1280.5C1770.2 1333.84 1811.8 1347.87 1869.5 1370C1939.19 1396.73 1985.37 1384.26 2060 1385.5C2153.71 1387.05 2231.12 1434.1 2299.5 1370C2334.61 1337.09 2355.42 1309.1 2357 1261C2360.56 1152.34 2192.21 1210.61 2083.5 1209Z" fill="#FF0066"/>
</g>
</svg>
